<svg width="17" height="16" viewBox="0 0 17 16" fill="none" xmlns="http://www.w3.org/2000/svg">
<g id="Twitter / Negative" clip-path="url(#clip0_1707_408)">
<path id="Vector" d="M5.69945 14.5C11.7357 14.5 15.0382 9.4978 15.0382 5.16124C15.0382 5.02062 15.0351 4.87687 15.0288 4.73624C15.6713 4.27164 16.2257 3.69617 16.666 3.03687C16.0677 3.30307 15.4324 3.47692 14.782 3.55249C15.4669 3.14194 15.9797 2.49698 16.2254 1.73718C15.5811 2.11904 14.8764 2.38841 14.1416 2.53374C13.6466 2.00771 12.992 1.65941 12.2791 1.5427C11.5663 1.42599 10.8348 1.54737 10.1978 1.88806C9.56088 2.22876 9.05388 2.7698 8.75525 3.42754C8.45661 4.08528 8.38297 4.82308 8.5457 5.52687C7.24101 5.46139 5.96464 5.12247 4.79934 4.53207C3.63403 3.94166 2.60581 3.11296 1.78133 2.09968C1.36228 2.82216 1.23405 3.6771 1.4227 4.49073C1.61135 5.30436 2.10272 6.01563 2.79695 6.47999C2.27577 6.46344 1.766 6.32312 1.30977 6.07062V6.11124C1.3093 6.86943 1.57141 7.60439 2.05156 8.19118C2.5317 8.77797 3.20023 9.18037 3.94352 9.32999C3.46072 9.46209 2.954 9.48133 2.46258 9.38624C2.67232 10.0383 3.0804 10.6086 3.62986 11.0176C4.17933 11.4265 4.84276 11.6537 5.52758 11.6675C4.36497 12.5807 2.9288 13.0761 1.45039 13.0737C1.18821 13.0733 0.926282 13.0573 0.666016 13.0256C2.16792 13.9892 3.91504 14.5009 5.69945 14.5Z" fill="#6D6E76"/>
</g>
<defs>
<clipPath id="clip0_1707_408">
<rect width="16" height="16" fill="white" transform="translate(0.666016)"/>
</clipPath>
</defs>
</svg>
